<svg version="1.2" xmlns="http://www.w3.org/2000/svg" viewBox="-400 0 1775 651">
	<title>collab studio</title>
	<style>
		.s0 { fill: #ffffff } 
		.s1 { fill: #b6bdab } 
	</style>
	
	<g id="Layer 1">
		<g id="&lt;Group&gt;">
			<g fill='#b6bdab' id="&lt;Group&gt;">
				<path id="&lt;Path&gt;" class="s1" d="m764.3 179.5l137.4-28.6c3.8-0.8 7.3 2.1 7.3 5.9v54.7c0 3.3 2.7 6 6 6h17.2c3.3 0 6-2.7 6-6v-68.2-51.8-35.3c0-3.8-3.5-6.7-7.2-5.9l-279.8 58.2c-2.8 0.6-4.8 3.1-4.8 5.9v86.2c0 2.1 1.1 4.1 2.9 5.2l157.2 92.7c5.3 3.1 3.1 11.2-3.1 11.2l-59.1 0.1c-1.2 0-2.4-0.4-3.4-1.1-50.9-34.4-75-49.4-84-54.8-2.5-1.5-5.8-1-7.7 1.3-37.2 43.6-48.4 57.7-51.7 61.9-0.8 1.1-1.3 2.4-1.3 3.7v54.9c0 3.4 2.7 6.1 6 6.1h102.8c3.3 0 6 2.7 6 6v2.8c0 2.8-1.9 5.2-4.5 5.9l-211.5 56.1c-2.7 0.7-4.5 3.1-4.5 5.8v75.2c0 4 3.8 6.9 7.6 5.8l242.2-66.4c2.6-0.7 4.4-3.1 4.4-5.8v-79.4c0-3.3 2.7-6 6.1-6h150.2c2.1 0 4.1-1.2 5.2-3.1l36-64.3c1.6-2.8 0.7-6.3-1.9-8l-178.1-115.9c-4.5-3-3.2-9.9 2.1-11z"/>
				<path id="&lt;Path&gt;" class="s1" d="m566.5 202.6l16.7-5.8c2.4-0.9 4-3.2 4-5.7v-64.9c0-3.9-3.6-6.8-7.4-5.9l-98.2 24.1c-2.7 0.7-4.6 3.1-4.6 5.9v168.7c0 2.7-1.9 5.1-4.5 5.8l-124.8 33.3c-2.6 0.7-4.5 3.1-4.5 5.8v72.9c0 4 3.8 6.9 7.7 5.9l207.2-57.4c2.6-0.8 4.4-3.1 4.4-5.9v-171.1c0-2.5 1.6-4.8 4-5.7z"/>
				<path id="&lt;Path&gt;" class="s1" d="m369.6 308.2l66.6-14.6c2.8-0.6 4.8-3.1 4.8-5.9v-198.5c0-4.2-4.3-7.2-8.3-5.6l-79.5 32.2c-2.2 0.9-3.7 3-3.8 5.4l-1.7 45.8c-0.2 4 3.4 7 7.2 6.2 3.8-0.8 7.3 2 7.3 5.9v123.2c0 3.8 3.6 6.7 7.4 5.9z"/>
				<path id="&lt;Path&gt;" class="s1" d="m209.2 241.1v4.1c0 3.4 2.7 6.1 6.1 6.1h17.2c3.3 0 6-2.7 6-6.1v-47.9-7.5c0-3.3-2.7-6-6-6h-23.3-65.1c-1.5 0-3 0.6-4.1 1.6l-102.9 97.9c-1.2 1.1-1.9 2.7-1.9 4.3v88.1c0 3.4 2.7 6.1 6 6.1h265.5c3.3 0 6-2.7 6-6.1v-71.1c0-3.4-2.7-6.1-6-6.1h-154.9c-5.4 0-8.1-6.5-4.3-10.3l51.4-51.4c3.8-3.8 10.3-1.1 10.3 4.3z"/>
				<path id="&lt;Path&gt;" class="s1" d="m127.4 459.2l47.2 47.1c2.4 2.4 6.2 2.4 8.5 0l47.2-47.1c2.3-2.4 2.3-6.2 0-8.6l-47.2-47.1c-2.3-2.4-6.1-2.4-8.5 0l-47.2 47.1c-2.3 2.4-2.3 6.2 0 8.6z"/>
			</g>
			<g fill="#b6bdab" id="&lt;Group&gt;">
				<path id="&lt;Path&gt;" class="s1" d="m426.5 618.6l-3.6 4.2c-1.4-1.4-2.9-2.7-4.4-3.7l-4.3 5.1c1.8 1.3 3.6 2.7 5.3 4.3l3.7-4.1c1.4 1.1 2.9 2.3 4.3 3.5l4.2-4.7c-1.6-1.8-3.4-3.5-5.2-4.6z"/>
				<path id="&lt;Compound Path&gt;" fill-rule="evenodd" class="s1" d="m430.9 588.4l-8.6 3.4c1.6 3.8 2.8 9.2 2.8 11.9 0 1.1-1.7 2.3-6.5 2.3h-0.3-6.3c-0.7-9.8-4.6-17.8-11.7-17.8-8.3 0-13.1 8.7-13.1 16.3 0 7.3 4.5 10.9 11.4 10.9 2.6 0 4.5 0 6-0.1-1.1 3.1-5.4 5.2-10.7 5.2-2.9 0-4.6-0.5-6.1-1.2l-2 8.8c1.7 0.6 4.2 1.2 7.5 1.2 10.2 0 15.9-6.1 18-13.7h6.3c6.4 0 10.6-1.5 12.8-5.8 1.6-3 2-6.7 2-10.2 0-4.1-0.7-7.8-1.5-11.2zm-26 18.4c-1.6 0.2-3.4 0.3-5.1 0.3-3.5 0-6.3-1-6.3-3.8 0-3.7 2.1-6.3 4.7-6.3 3.3 0 6.4 3.8 6.7 9.8z"/>
				<path id="&lt;Path&gt;" class="s1" d="m451.3 581.7l-5.8 6.5c11.3 10.9 12.1 15 12.1 17q0 0.6-1.2 1c-1.1 0.4-3.1 0.7-5.6 0.7-4.2 0-5.7-0.7-5.7-2.3 0-0.7 0.2-1.4 0.6-2.4l-7.1-1.9c-0.4 2.3-0.7 4.4-0.7 6.2 0 5.6 2.1 9.7 11.1 9.7 6.2 0 10.4-1.3 12.8-4.1 1.8-2.1 2.7-5 2.7-8.9 0-3.8-0.7-9.5-13.2-21.5z"/>
				<path id="&lt;Path&gt;" class="s1" d="m509.1 584.8c1.4 1.1 2.9 2.3 4.3 3.6l4.2-4.8c-1.6-1.8-3.4-3.4-5.2-4.6l-3.6 4.2c-1.4-1.4-2.9-2.7-4.4-3.7l-4.3 5.1c1.8 1.3 3.6 2.7 5.3 4.3z"/>
				<path id="&lt;Compound Path&gt;" fill-rule="evenodd" class="s1" d="m575.2 589.6l-7.8 3.2c1.7 4.3 2.1 8.4 2.1 11 0 1-1.4 2.2-4.6 2.2-3.1 0-4.4-1.8-4.4-6v-4.7l-7.1 0.2v3.6c0 5.4-2.4 6.9-6 6.9-3.4 0-5.5-0.9-5.5-5.1 0-1.1 0.3-4.3 0.6-6.5l-6.9-0.3-0.5 4.6c-0.5 5.2-1.2 7.3-7.7 7.3h-0.9-2.2c-5.4 0-6.4-1.2-6.4-7.4v-6.7l-7.1 0.7v7.1c0 3.3-0.6 6.3-8.1 6.3h-0.9-6.4c-0.7-9.8-4.6-17.8-11.7-17.8-8.3 0-13.1 8.7-13.1 16.3 0 7.3 4.5 10.9 11.4 10.9 2.6 0 4.5 0 6.1-0.1-1.2 3.1-5.5 5.2-10.8 5.2-2.9 0-4.6-0.5-6.1-1.2l-2 8.8c1.7 0.6 4.2 1.2 7.5 1.2 10.2 0 16-6.1 18-13.7h5.8c6.1 0 10.2-1.6 12.3-5.4 1.5 3.6 4.8 5.4 10.2 5.4h2.2c3.8 0 9.1-0.6 11.5-4.8 1.7 3.7 5.3 4.8 9.1 4.8 3.6 0 7.3-1.6 8.9-4.1 1.4 2.6 4.4 4.1 8.5 4.1 4.4 0 8.6-1.6 10.8-5 1.8-3 2.5-7.1 2.5-11.9 0-3.2-0.4-6.5-1.3-9.1zm-86.9 17.1c-1.7 0.2-3.5 0.3-5.2 0.3-3.5 0-6.2-1-6.2-3.8 0-3.7 2-6.3 4.6-6.3 3.3 0 6.4 3.8 6.8 9.8z"/>
				<path id="&lt;Path&gt;" class="s1" d="m583.2 607.6c0 4.3-0.1 6.2-0.2 8h7c0.5-2 0.9-6.3 0.9-9.3v-37.9l-8 0.9 0.2 25.8c0 4 0.1 11.2 0.1 12.5z"/>
				<path id="&lt;Path&gt;" class="s1" d="m588 628.4c-2.4 0-4.1-1-4.1-2.7 0-1.6 1.2-2.7 2.8-2.7q1.9 0 3.8 1.5l1.6-4.9c-1.1-0.7-2.3-1.1-4.4-1.1-4.2 0-7.5 3.6-7.5 7.9 0 2 1 3.5 2.4 4.2-1.3 0.6-2.7 1.2-4.2 2.1l1.5 3c3.8-1.5 8.7-3.3 13.5-3.9l0.4-4.6c-1.2 0.2-4.5 1.2-5.8 1.2z"/>
			</g>
		</g>
	</g>
</svg>