<?xml version="1.0" standalone="no"?>
<!DOCTYPE svg PUBLIC "-//W3C//DTD SVG 20010904//EN"
 "http://www.w3.org/TR/2001/REC-SVG-20010904/DTD/svg10.dtd">
<svg version="1.0" xmlns="http://www.w3.org/2000/svg"
 width="960.000000pt" height="960.000000pt" viewBox="0 0 960.000000 960.000000"
 preserveAspectRatio="xMidYMid meet">
<metadata>
Created by potrace 1.14, written by Peter Selinger 2001-2017
</metadata>
<g transform="translate(0.000000,960.000000) scale(0.100000,-0.100000)"
fill="#000000" stroke="none">
<path d="M2774 7735 c-17 -7 -42 -27 -57 -44 l-27 -32 1 -557 c0 -306 4 -566
9 -577 20 -50 57 -71 170 -96 74 -16 83 -19 106 -34 59 -39 55 102 54 -1983 0
-1836 0 -1908 18 -1941 40 -74 -95 -69 1619 -69 927 0 1547 4 1561 9 14 5 38
24 53 42 l28 32 1 547 c0 605 1 600 -62 638 -32 19 -50 20 -937 20 -669 0
-912 3 -932 12 -14 6 -37 27 -50 46 l-24 35 0 1076 c0 738 3 1085 11 1106 19
55 51 78 113 81 30 1 62 -1 71 -6 8 -4 33 -10 55 -14 22 -3 60 -10 85 -16 25
-6 56 -13 70 -15 22 -5 87 -18 145 -31 11 -2 61 -13 110 -24 50 -12 96 -21
103 -22 25 -3 83 -63 89 -93 3 -16 6 -372 7 -790 1 -722 2 -761 19 -787 40
-59 33 -58 590 -58 556 0 549 -1 592 58 20 27 20 43 21 1402 0 756 -3 1389 -8
1405 -7 29 -53 75 -80 82 -25 6 -110 21 -263 47 -49 9 -100 18 -111 20 -12 2
-37 7 -55 10 -19 3 -58 10 -87 16 -29 5 -56 9 -60 8 -4 -1 -14 1 -22 5 -8 3
-35 8 -60 11 -67 9 -145 23 -145 26 0 1 -11 3 -25 5 -53 7 -157 24 -235 40
-38 8 -73 14 -124 21 -45 6 -56 8 -103 19 -13 3 -43 8 -68 11 -25 3 -54 8 -65
11 -11 3 -31 7 -45 9 -46 5 -145 24 -177 33 -17 5 -34 7 -36 4 -3 -2 -22 0
-43 6 -22 5 -57 12 -79 15 -22 3 -65 10 -95 15 -30 6 -67 13 -83 15 -15 3 -53
10 -85 15 -31 6 -70 13 -87 16 -16 3 -41 7 -55 10 -56 10 -207 36 -240 41 -19
3 -60 10 -90 16 -30 6 -66 12 -80 13 -14 2 -25 4 -25 5 0 2 -22 6 -75 14 -19
2 -48 7 -65 10 -75 14 -101 19 -115 21 -8 1 -31 5 -50 8 -19 4 -46 9 -60 11
-25 5 -87 15 -125 21 -41 7 -202 36 -225 41 -14 2 -45 7 -70 10 -25 3 -50 7
-56 9 -5 1 -24 -3 -40 -10z"/>
</g>
</svg>
